/vscmnt/brussel_pixiu_data/_data_brussel/112/vsc11236/PredSimResults/SUBJ10mtu3D/worker9.mot
version=1
nRows=4
nColumns=50
inDegrees=yes
endheader
                time	         pelvis_tilt	         pelvis_list	     pelvis_rotation	           pelvis_tx	           pelvis_ty	           pelvis_tz	       hip_flexion_r	     hip_adduction_r	      hip_rotation_r	        knee_angle_r	       ankle_angle_r	         mtp_angle_r	       hip_flexion_l	     hip_adduction_l	      hip_rotation_l	        knee_angle_l	       ankle_angle_l	         mtp_angle_l	    lumbar_extension	      lumbar_bending	     lumbar_rotation	 ercspn_r/activation	 intobl_r/activation	 extobl_r/activation	    abd_r/activation	    add_r/activation	hamstrings_r/activation	bifemsh_r/activation	glut_max_r/activation	iliopsoas_r/activation	rect_fem_r/activation	  vasti_r/activation	gastroc_r/activation	 soleus_r/activation	tib_ant_r/activation	 ercspn_l/activation	 intobl_l/activation	 extobl_l/activation	    abd_l/activation	    add_l/activation	hamstrings_l/activation	bifemsh_l/activation	glut_max_l/activation	iliopsoas_l/activation	rect_fem_l/activation	  vasti_l/activation	gastroc_l/activation	 soleus_l/activation	tib_ant_l/activation	
          0.00000000	         -7.16423053	         -1.77050136	          7.76279087	          0.00000000	          0.81766850	         -0.01193870	         33.36994313	         -1.86710668	         -7.06827422	         -7.88445134	         -3.88639271	          0.27124686	        -13.08705787	         -1.70718926	          3.20341933	         -8.60061299	          5.72705632	         32.11861837	         -5.85925396	         -0.34334047	         -3.37932324	          0.10002414	          0.17660384	          0.03407750	          0.01000011	          0.24158358	          0.02354959	          0.26769430	          0.05915977	          0.04896502	          0.01801543	          0.01000018	          0.02324129	          0.01380009	          0.46024078	          0.05863670	          0.01000043	          0.01000051	          0.05570211	          0.04706863	          0.04030750	          0.21416520	          0.03256135	          0.42697227	          0.01000668	          0.01000135	          0.06205635	          0.07197974	          0.03469854	
          0.01102238	         -7.29000890	         -1.75507852	          7.93386871	          0.01537114	          0.81688484	         -0.01195505	         33.11657971	         -1.68238849	         -6.20082065	         -9.26280979	         -3.98779726	          0.26016945	        -13.02915840	         -1.77283647	          2.88407935	        -10.19220762	          4.40625983	         33.99381555	         -5.68337689	          0.11909426	         -3.51941443	          0.08450237	          0.16359393	          0.02878885	          0.01000023	          0.20409319	          0.04635409	          0.22967511	          0.08334775	          0.04136595	          0.01521955	          0.01000008	          0.01963448	          0.01165852	          0.48736435	          0.07425824	          0.01000021	          0.01000058	          0.04705739	          0.06456705	          0.04170383	          0.18092781	          0.02750804	          0.41365406	          0.01000297	          0.01068658	          0.05242554	          0.06080893	          0.02931348	
          0.02204476	         -7.39808835	         -1.73369063	          8.05155848	          0.03093916	          0.81640297	         -0.01186681	         32.84951710	         -1.51887707	         -5.42418907	        -10.58653846	         -4.18753862	          0.24529734	        -12.80701030	         -1.83108550	          2.53113593	        -12.09776017	          2.92212633	         35.79042590	         -5.51840391	          0.58723639	         -3.64131162	          0.09693239	          0.13820514	          0.02432098	          0.04164428	          0.21926188	          0.05463983	          0.19403105	          0.10496115	          0.03494621	          0.01285760	          0.01000016	          0.01658741	          0.01000069	          0.50261845	          0.10311525	          0.01000019	          0.01000048	          0.03975429	          0.05609904	          0.04445737	          0.15284874	          0.02323896	          0.39499933	          0.01000302	          0.01345540	          0.04428937	          0.05137172	          0.02476416	
          0.03306714	         -7.48608443	         -1.70099105	          8.11659716	          0.04659291	          0.81630659	         -0.01166063	         32.63864045	         -1.37264694	         -4.81535296	        -12.05943639	         -4.24524097	          0.22969297	        -12.37019427	         -1.87831116	          2.14275837	        -14.38618675	          1.26862344	         37.39878396	         -5.37497129	          1.04883465	         -3.74118818	          0.11289699	          0.11675639	          0.02054650	          0.09229930	          0.27147551	          0.05646466	          0.16391855	          0.12471128	          0.02952278	          0.01086228	          0.01000026	          0.01401323	          0.01000159	          0.50769918	          0.14211708	          0.01000020	          0.01000040	          0.03358460	          0.05925896	          0.04115489	          0.12912744	          0.01963240	          0.37188818	          0.01000289	          0.01136870	          0.03741590	          0.04339910	          0.02092088	
